<svg width="105" height="96" viewBox="0 0 105 96" fill="none" xmlns="http://www.w3.org/2000/svg">
<ellipse cx="50.4283" cy="49.9002" rx="45.4283" ry="45.2782" fill="url(#paint0_linear)"/>
<path d="M62.167 73.7876V74.5783C62.5897 77.9785 65.6832 79.7282 67.2857 80.1949C65.6832 80.6616 62.5897 82.4113 62.167 85.8115V86.6022C62.167 86.4102 62.1587 86.2229 62.1428 86.0402C62.1269 86.2229 62.1187 86.4102 62.1187 86.6022V85.8115C61.696 82.4113 58.6025 80.6616 57 80.1949C58.6025 79.7282 61.696 77.9785 62.1187 74.5783V73.7876C62.1187 73.9795 62.1269 74.1668 62.1428 74.3495C62.1587 74.1668 62.167 73.9795 62.167 73.7876Z" fill="#F3F4FA" fill-opacity="0.2"/>
<path d="M73.9998 22.5628C79.207 22.5628 83.4283 18.3554 83.4283 13.1654C83.4283 7.97541 79.207 3.76807 73.9998 3.76807C68.7926 3.76807 64.5713 7.97541 64.5713 13.1654C64.5713 18.3554 68.7926 22.5628 73.9998 22.5628Z" fill="#9DE8F8"/>
<path d="M73.6372 21.8399C78.6441 21.8399 82.7031 17.7944 82.7031 12.804C82.7031 7.81358 78.6441 3.76807 73.6372 3.76807C68.6302 3.76807 64.5713 7.81358 64.5713 12.804C64.5713 17.7944 68.6302 21.8399 73.6372 21.8399Z" fill="#BBF3FF"/>
<path d="M71.8496 13.3594L72.856 8.03955H74.8877L74.15 11.6524L76.4115 9.9743L76.1576 11.3563L73.8628 13.059L73.3639 15.5022H77.4274L77.1734 17.4369H71.0782L71.587 14.7478L70.5703 15.5022L70.8243 14.1202L71.8496 13.3594Z" fill="white"/>
<path d="M12.5714 46.5628C18.9621 46.5628 24.1427 41.3993 24.1427 35.0297C24.1427 28.6601 18.9621 23.4966 12.5714 23.4966C6.18068 23.4966 1 28.6601 1 35.0297C1 41.3993 6.18068 46.5628 12.5714 46.5628Z" fill="#E9CD86"/>
<path opacity="0.8" d="M12.1428 45.7085C18.2968 45.7085 23.2856 40.7362 23.2856 34.6025C23.2856 28.4689 18.2968 23.4966 12.1428 23.4966C5.9888 23.4966 1 28.4689 1 34.6025C1 40.7362 5.9888 45.7085 12.1428 45.7085Z" fill="#FFDD85"/>
<path fill-rule="evenodd" clip-rule="evenodd" d="M17.1501 33.2283C17.3689 31.7732 16.2566 30.991 14.737 30.4695L15.2302 28.4983L14.0261 28.1995L13.5466 30.1184L13.3659 30.074C13.1071 30.0115 12.8435 29.9519 12.5818 29.8923L13.0652 27.9602L11.862 27.6614L11.3689 29.6316L11.0359 29.5554L10.6003 29.4514L8.94113 29.0325L8.62082 30.3137C8.62082 30.3137 9.51437 30.5178 9.49582 30.5305C9.70383 30.5823 9.83859 30.6702 9.92453 30.7742C10.0398 30.9138 10.0652 31.0818 10.0564 31.2283L9.49484 33.4739C9.52804 33.4822 9.57199 33.4944 9.61984 33.5139L9.49289 33.4822L8.70578 36.6277C8.67453 36.7058 8.61691 36.804 8.52023 36.8674C8.43429 36.9241 8.31515 36.9524 8.15402 36.9128C8.16574 36.9304 7.27902 36.6951 7.27902 36.6951L6.68136 38.0686L8.24777 38.4578L8.77121 38.592L9.10617 38.6785L8.60812 40.6721L9.81027 40.9709L10.3034 38.9988L10.8825 39.1511L11.2634 39.2468L10.7712 41.2102L11.9753 41.509L12.4734 39.5193C14.5261 39.9065 16.0691 39.7502 16.7195 37.8997C17.2429 36.4099 16.6931 35.5505 15.613 34.99C16.3991 34.8093 16.9919 34.2937 17.1501 33.2283ZM14.4001 37.0725C14.028 38.5623 11.5114 37.7571 10.695 37.5549L11.3562 34.9138L11.653 34.9822C12.6687 35.2097 14.7497 35.6755 14.4001 37.0725ZM11.8562 33.7561C12.6745 33.9739 14.4616 34.4495 14.7732 33.2068C15.0905 31.9363 13.3552 31.553 12.5066 31.366L12.2585 31.3093L11.6589 33.7048L11.8562 33.7561Z" fill="white"/>
<ellipse rx="11.8182" ry="11.7806" transform="matrix(-0.991024 -0.133686 0.134558 -0.990906 13.2969 35.0411)" fill="url(#paint1_radial)" fill-opacity="0.7"/>
<path d="M94.4883 58.6012C99.6897 58.472 103.801 54.1508 103.672 48.9494C103.543 43.7481 99.2217 39.6363 94.0204 39.7655C88.8191 39.8948 84.7073 44.216 84.8365 49.4174C84.9657 54.6187 89.287 58.7305 94.4883 58.6012Z" fill="#4B64BC"/>
<path d="M94.0929 57.8572C99.0862 57.7331 103.033 53.5847 102.909 48.5914C102.785 43.5982 98.637 39.6509 93.6437 39.7749C88.6504 39.899 84.7031 44.0474 84.8271 49.0406C84.9512 54.0339 89.0996 57.9812 94.0929 57.8572Z" fill="#526ED1"/>
<path d="M93.9727 42.5938L94.0868 47.1882L98.0132 48.827L93.9727 42.5938Z" fill="white" fill-opacity="0.602"/>
<path d="M93.9717 42.5949L90.2451 49.0211L94.0859 47.1894L93.9717 42.5949Z" fill="white"/>
<path d="M94.2035 51.9012L94.281 55.0231L98.0334 49.5504L94.2035 51.9012Z" fill="white" fill-opacity="0.602"/>
<path d="M94.2801 55.0233L94.2025 51.9009L90.2627 49.7437L94.2801 55.0233Z" fill="white"/>
<path d="M94.186 51.1784L98.0133 48.8272L94.0869 47.1895L94.186 51.1784Z" fill="white" fill-opacity="0.2"/>
<path d="M90.2452 49.0203L94.1851 51.1786L94.086 47.1896L90.2452 49.0203Z" fill="white" fill-opacity="0.602"/>
<g style="mix-blend-mode:overlay">
<circle cx="94.1302" cy="48.9169" r="9.27267" transform="rotate(-173.715 94.1302 48.9169)" fill="url(#paint2_radial)" fill-opacity="0.7"/>
</g>
<g style="mix-blend-mode:overlay">
<ellipse rx="9.45226" ry="9.42214" transform="matrix(-0.991024 -0.133686 0.134558 -0.990906 74.3487 13.5137)" fill="url(#paint3_radial)" fill-opacity="0.7"/>
</g>
<g style="mix-blend-mode:overlay">
<ellipse rx="8.61915" ry="8.59169" transform="matrix(-0.991024 -0.133686 0.134558 -0.990906 41.6983 80.6657)" fill="url(#paint4_radial)" fill-opacity="0.4"/>
</g>
<path d="M34.6069 0V1.21238C35.241 6.42605 39.8812 9.10893 42.2849 9.82451C39.8812 10.5401 35.241 13.223 34.6069 18.4366V19.649C34.6069 19.3547 34.5945 19.0675 34.5707 18.7874C34.5468 19.0675 34.5345 19.3547 34.5345 19.649V18.4366C33.9004 13.223 29.2602 10.5401 26.8564 9.82451C29.2602 9.10893 33.9004 6.42605 34.5345 1.21238V0C34.5345 0.29431 34.5468 0.581501 34.5707 0.861656C34.5945 0.581501 34.6069 0.29431 34.6069 0Z" fill="url(#paint5_linear)"/>
<g style="mix-blend-mode:overlay">
<ellipse cx="23.2857" cy="55.0691" rx="1.28571" ry="1.28146" fill="white" fill-opacity="0.7"/>
</g>
<g style="mix-blend-mode:overlay">
<ellipse cx="84.7144" cy="67.4133" rx="1.28571" ry="1.28146" fill="white" fill-opacity="0.7"/>
</g>
<g style="mix-blend-mode:overlay">
<ellipse cx="50.8571" cy="11.4564" rx="0.857138" ry="0.854305" fill="white"/>
</g>
<g style="mix-blend-mode:overlay">
<ellipse cx="79.9997" cy="29.3968" rx="0.857138" ry="0.854305" fill="white" fill-opacity="0.5"/>
</g>
<g style="mix-blend-mode:overlay">
<ellipse cx="65.4284" cy="30.2508" rx="0.857138" ry="0.854305" fill="white" fill-opacity="0.5"/>
</g>
<path d="M41.5006 88.9236C46.2704 88.9236 50.137 85.057 50.137 80.2872C50.137 75.5175 46.2704 71.6509 41.5006 71.6509C36.7309 71.6509 32.8643 75.5175 32.8643 80.2872C32.8643 85.057 36.7309 88.9236 41.5006 88.9236Z" fill="#7CE0B6"/>
<path d="M41.1908 88.2566C45.762 88.2566 49.4676 84.551 49.4676 79.9799C49.4676 75.4088 45.762 71.7031 41.1908 71.7031C36.6197 71.7031 32.9141 75.4088 32.9141 79.9799C32.9141 84.551 36.6197 88.2566 41.1908 88.2566Z" fill="#94F1CA"/>
<g style="mix-blend-mode:overlay">
<circle cx="41.5003" cy="80.2871" r="8.4438" transform="rotate(-172.292 41.5003 80.2871)" fill="url(#paint6_radial)" fill-opacity="0.7"/>
</g>
<g style="mix-blend-mode:overlay" opacity="0.8">
<path d="M42.0279 75.4129H41.2799V76.2819C40.9499 76.3149 40.6309 76.3809 40.3009 76.4799C39.9709 76.5899 39.6849 76.7329 39.4319 76.9199C39.1679 77.1069 38.9589 77.3379 38.8049 77.6129C38.6399 77.8879 38.5629 78.2069 38.5629 78.5699C38.5629 78.9219 38.6289 79.2409 38.7609 79.5159C38.8929 79.7909 39.0799 80.0219 39.2999 80.2199C39.5199 80.4179 39.7619 80.5829 40.0369 80.7039C40.3119 80.8359 40.5979 80.9239 40.8839 80.9789L41.2799 81.0669V83.1019C40.9279 83.0799 40.6529 82.9479 40.4439 82.7059C40.2239 82.4639 40.1249 82.1229 40.1469 81.6609L38.3869 81.6829C38.3759 82.1009 38.4419 82.4639 38.5849 82.7939C38.7279 83.1239 38.9259 83.4099 39.1899 83.6519C39.4539 83.8939 39.7619 84.0919 40.1139 84.2349C40.4659 84.3889 40.8619 84.4769 41.2799 84.4989V85.6099H42.0279V84.4989C42.3909 84.4769 42.7429 84.3999 43.0949 84.2789C43.4469 84.1579 43.7549 83.9929 44.0189 83.7839C44.2829 83.5859 44.5029 83.3329 44.6679 83.0469C44.8219 82.7609 44.9099 82.4199 44.9099 82.0459C44.9099 81.6279 44.8109 81.2869 44.6349 81.0009C44.4589 80.7259 44.2279 80.4949 43.9529 80.3079C43.6779 80.1319 43.3699 79.9889 43.0399 79.8789C42.6989 79.7799 42.3799 79.6919 42.0719 79.6149L42.0279 79.6039V77.7009C42.3359 77.7449 42.5889 77.8769 42.7759 78.0969C42.9629 78.3169 43.0509 78.6029 43.0399 78.9439L44.7999 78.9219C44.7999 78.5699 44.7339 78.2399 44.6019 77.9319C44.4699 77.6239 44.2719 77.3599 44.0299 77.1289C43.7769 76.9089 43.4799 76.7219 43.1389 76.5679C42.7979 76.4249 42.4239 76.3369 42.0279 76.2929V75.4129ZM43.1719 82.1999C43.1719 82.4639 43.0619 82.6729 42.8419 82.8379C42.6219 83.0029 42.3469 83.0909 42.0279 83.1129V81.2429C42.3689 81.3419 42.6439 81.4629 42.8529 81.6059C43.0619 81.7489 43.1719 81.9469 43.1719 82.1999ZM40.2569 78.5259C40.2569 78.2949 40.3449 78.0969 40.5429 77.9429C40.7299 77.7889 40.9719 77.7009 41.2799 77.6789V79.4389C40.8949 79.3619 40.6309 79.2409 40.4769 79.0869C40.3229 78.9329 40.2569 78.7459 40.2569 78.5259Z" fill="white"/>
</g>
<path d="M35.2461 35.7871H68.7539C71.0986 35.7871 73 37.6997 73 40.0591V42.0435H31V40.0591C31 37.6997 32.9014 35.7871 35.2461 35.7871Z" fill="url(#paint7_linear)"/>
<path fill-rule="evenodd" clip-rule="evenodd" d="M31 60.5151V44.7998H73V60.5151C73 62.8745 71.0986 64.7871 68.7539 64.7871H35.2461C32.9014 64.7871 31 62.8745 31 60.5151ZM45.9121 50.3472H35.5537V53.103H45.9121V50.3472ZM35.5537 58.5156H49.2285V55.7598H35.5537V58.5156ZM61.9258 57.7969C62.6016 58.2861 63.4307 58.5752 64.3271 58.5752C66.6025 58.5752 68.4463 56.7202 68.4463 54.4312C68.4463 52.1426 66.6025 50.2871 64.3271 50.2871C63.4307 50.2871 62.6016 50.5762 61.9258 51.0654C61.4678 50.7339 60.9395 50.4941 60.3672 50.3745C60.0957 50.3174 59.8135 50.2871 59.5244 50.2871C57.249 50.2871 55.4053 52.1426 55.4053 54.4312C55.4053 56.7202 57.249 58.5752 59.5244 58.5752C60.4209 58.5752 61.25 58.2861 61.9258 57.7969Z" fill="url(#paint8_linear)"/>
<circle cx="59.5" cy="54.2871" r="4.5" fill="#6F90FF"/>
<circle cx="64.5" cy="54.2871" r="4.5" fill="#80A2FF"/>
<defs>
<linearGradient id="paint0_linear" x1="50.4283" y1="4.62207" x2="50.4283" y2="95.1784" gradientUnits="userSpaceOnUse">
<stop stop-color="#96C6FF"/>
<stop offset="1" stop-color="#5B76FF"/>
</linearGradient>
<radialGradient id="paint1_radial" cx="0" cy="0" r="1" gradientUnits="userSpaceOnUse" gradientTransform="translate(15.2335 13.9801) rotate(-81.5589) scale(10.0308 10.0739)">
<stop offset="0.149171" stop-color="#FCFFD4" stop-opacity="0.7"/>
<stop offset="1" stop-color="white" stop-opacity="0"/>
</radialGradient>
<radialGradient id="paint2_radial" cx="0" cy="0" r="1" gradientUnits="userSpaceOnUse" gradientTransform="translate(96.8098 50.6482) rotate(-81.5854) scale(7.89487 7.90458)">
<stop offset="0.149171" stop-color="#D4FFFA" stop-opacity="0.7"/>
<stop offset="1" stop-color="white" stop-opacity="0"/>
</radialGradient>
<radialGradient id="paint3_radial" cx="0" cy="0" r="1" gradientUnits="userSpaceOnUse" gradientTransform="translate(12.1838 11.1813) rotate(-81.5589) scale(8.02267 8.05711)">
<stop offset="0.149171" stop-color="#D4FFFA" stop-opacity="0.7"/>
<stop offset="1" stop-color="white" stop-opacity="0"/>
</radialGradient>
<radialGradient id="paint4_radial" cx="0" cy="0" r="1" gradientUnits="userSpaceOnUse" gradientTransform="translate(11.11 10.1958) rotate(-81.5589) scale(7.31557 7.34697)">
<stop offset="0.149171" stop-color="#D4FFFA" stop-opacity="0.7"/>
<stop offset="1" stop-color="white" stop-opacity="0"/>
</radialGradient>
<linearGradient id="paint5_linear" x1="34.5707" y1="-1.21289" x2="34.5707" y2="18.4361" gradientUnits="userSpaceOnUse">
<stop stop-color="white"/>
<stop offset="1" stop-color="#A8CFFE" stop-opacity="0.3"/>
</linearGradient>
<radialGradient id="paint6_radial" cx="0" cy="0" r="1" gradientUnits="userSpaceOnUse" gradientTransform="translate(43.9405 81.8636) rotate(-81.5854) scale(7.18915 7.19799)">
<stop offset="0.149171" stop-color="#D4FFFA" stop-opacity="0.7"/>
<stop offset="1" stop-color="white" stop-opacity="0"/>
</radialGradient>
<linearGradient id="paint7_linear" x1="52" y1="35.7871" x2="52" y2="61.2871" gradientUnits="userSpaceOnUse">
<stop stop-color="white"/>
<stop offset="1" stop-color="white" stop-opacity="0.5"/>
</linearGradient>
<linearGradient id="paint8_linear" x1="52" y1="35.7871" x2="52" y2="61.2871" gradientUnits="userSpaceOnUse">
<stop stop-color="white"/>
<stop offset="1" stop-color="white" stop-opacity="0.5"/>
</linearGradient>
</defs>
</svg>
