<svg xmlns="http://www.w3.org/2000/svg" viewBox="0 0 957.95 938.64"><defs><style>.cls-1{fill:#fff;}.cls-2{fill:#262265;}</style></defs><g id="OuterLine"><rect class="cls-1" width="957.95" height="938.64" rx="124.28"/></g><g id="Icon"><path class="cls-2" d="M779.73,237c16.21,16.14,24.34,24.45,25.41,36.69,2.09,23.8-23.59,38.58-93.14,90.78-79,59.27-89.38,72.88-115.84,72-30.81-1-47.65-29.29-77-33.35-34.8-4.8-69.38,20.07-90.85,44.91-38.13,44.13-58.55,105.4-45.95,162.35,12.09,54.63,51.51,91.91,104.67,106.61,25.77,7.12,52.7,8.8,79.32,8,56.95-1.65,77-21.13,98.3-7.07,16.15,10.66,23.28,33.55,21.42,51.44-6.05,58.1-109.28,84-116.34,85.7-83.08,19.92-154.6-15.39-176.26-26.11C305.41,785.49,242,697.31,224.19,600.69s8.9-199.68,67.73-278.38C379.6,205,548.69,126.55,692,179.94,699.62,182.78,741.33,198.8,779.73,237Z" transform="translate(-33.02 -42.68)"/></g></svg>