<svg xmlns="http://www.w3.org/2000/svg" width="90" height="90" fill="none">
  <circle cx="45" cy="45" r="45" fill="url(#paint0_linear)"/>
  <path fill="#fff" d="M18.653 62.571v.652c.353 2.804 2.94 4.247 4.28 4.632-1.34.384-3.927 1.827-4.28 4.63v.653c0-.158-.007-.313-.02-.464-.014.151-.02.306-.02.464v-.652c-.354-2.804-2.941-4.247-4.281-4.631 1.34-.385 3.927-1.828 4.28-4.632v-.652c0 .159.007.313.02.464.014-.151.02-.305.02-.464z"/>
  <path fill="url(#paint1_linear)" d="M77.918 32v.925c.484 3.98 4.028 6.029 5.863 6.575-1.835.546-5.379 2.594-5.863 6.575V47c0-.225-.01-.444-.027-.658a7.755 7.755 0 0 0-.028.658v-.925c-.484-3.98-4.028-6.029-5.863-6.575 1.835-.546 5.379-2.594 5.863-6.575V32c0 .225.01.444.028.658.018-.214.027-.433.027-.658z"/>
  <ellipse cx="41.956" cy="10.961" fill="#fff" fill-opacity=".3" rx=".956" ry=".961"/>
  <ellipse cx="46.478" cy="14.48" fill="#fff" rx=".478" ry=".48"/>
  <ellipse cx="66.956" cy="73.961" fill="#fff" fill-opacity=".7" rx=".956" ry=".961"/>
  <ellipse cx="77.478" cy="65.48" fill="#fff" fill-opacity=".3" rx=".478" ry=".48"/>
  <ellipse cx="71.478" cy="67.48" fill="#fff" fill-opacity=".3" rx=".478" ry=".48"/>
  <ellipse cx="12.956" cy="47.961" fill="#fff" fill-opacity=".3" rx=".956" ry=".961"/>
  <ellipse cx="50.801" cy="80.47" fill="#fff" fill-opacity=".3" rx=".478" ry=".48"/>
  <path fill="url(#paint2_linear)" d="M22 23v26.47C22 62.467 32.297 73 45 73s23-10.534 23-23.53V23H22z"/>
  <path fill="url(#paint3_linear)" d="M26.791 27.902v21.28c0 10.448 8.152 18.916 18.208 18.916 10.057 0 18.209-8.468 18.209-18.915v-21.28H26.79z"/>
  <path fill="#321D86" d="M45.932 62.167c-.171-.062-.38-.234-.452-.373a5.969 5.969 0 0 1-.195-.505c-.365-1.048-.84-1.62-1.414-1.698-.434-.06-1.223.475-2.131 1.443-.54.576-.732.672-1.15.572-.254-.061-.544-.326-.607-.555-.132-.483-.022-.696.772-1.487.87-.867 1.485-1.308 2.192-1.57.288-.107.349-.116.828-.117.485-.001.54.006.854.118.46.164.716.324 1.094.682.5.476.893 1.128 1.196 1.992.163.463.195.65.149.868a.878.878 0 0 1-1.136.63zm3.576-1.091c-.229-.104-.897-.65-1.343-1.098-.897-.901-1.477-1.87-1.752-2.926-.283-1.086-.142-2.453.346-3.348.294-.54.812-.702 1.285-.402.395.25.496.709.265 1.193-.225.469-.295.794-.291 1.352.002.381.022.569.085.803.103.384.365.932.628 1.313.257.373.903 1.043 1.356 1.407.552.443.653.605.62.995-.047.578-.674.949-1.199.71zm-12.309-.308c-.304-.078-.562-.319-.638-.597-.06-.221-.017-.536.096-.707.058-.087.39-.363.845-.702 3.389-2.528 6.41-5.373 8.072-7.602.632-.848 1.154-1.758 1.416-2.47.368-1.002.336-1.752-.116-2.692-.403-.838-1.107-1.306-1.967-1.306-.757 0-1.507.395-2.008 1.057-.116.155-.387.643-.654 1.182-1.35 2.72-2.571 4.163-5.218 6.168-.891.674-3.148 2.275-3.295 2.336-.213.09-.608.051-.8-.076a.879.879 0 0 1-.217-1.238c.05-.066.448-.375.887-.687 2.74-1.951 3.767-2.761 4.635-3.657.982-1.012 1.587-1.911 2.452-3.64.513-1.025.735-1.378 1.143-1.814.888-.948 2.262-1.489 3.45-1.356.93.105 1.643.438 2.293 1.074.723.708 1.176 1.61 1.36 2.714a4.886 4.886 0 0 1-.041 1.61c-.273 1.4-1.317 3.21-2.937 5.096-1.476 1.717-3.65 3.744-6.074 5.663-.868.687-1.88 1.445-2.07 1.55-.175.096-.444.137-.614.094zm15.942-1.84a6.39 6.39 0 0 1-1.476-.788c-1.196-.895-2.003-2.429-2.325-4.417-.194-1.195-.134-2.019.303-4.229.43-2.175.487-3.246.221-4.247-.294-1.109-1.058-2.097-2.187-2.83a4.973 4.973 0 0 0-2.785-.825c-1.022 0-1.911.272-2.796.854-1.125.74-1.918 1.725-2.749 3.413-.238.484-.535 1.035-.66 1.225-.867 1.311-2.456 2.8-4.32 4.046-.56.375-.719.448-.964.448-.716 0-1.129-.868-.664-1.397.065-.073.31-.26.544-.415 1.7-1.123 3.173-2.48 3.953-3.639.1-.147.27-.457.378-.689.71-1.514 1.304-2.428 2.135-3.286 1.329-1.373 2.866-2.127 4.663-2.287 1.707-.151 3.559.467 4.992 1.667 1.723 1.443 2.51 3.335 2.347 5.649-.05.729-.142 1.34-.388 2.6-.284 1.452-.343 1.869-.367 2.564-.017.54-.009.698.062 1.091.252 1.407.66 2.346 1.307 3.002.359.365.732.598 1.38.862.537.218.654.298.771.527.175.34.115.74-.148.996-.315.305-.63.333-1.227.106zm-18.592-.322a.934.934 0 0 1-.439-.444c-.078-.15-.062-.53.03-.708.102-.194.185-.268.797-.708 3.025-2.177 5.774-4.764 7.482-7.041.672-.897 1.12-1.61 1.548-2.467.248-.496.31-.59.452-.689.134-.092.213-.116.424-.128a.94.94 0 0 1 .391.04c.438.184.644.67.48 1.133-.084.238-.499 1.045-.759 1.478-1.742 2.893-4.932 6.123-8.91 9.02-.36.263-.727.507-.816.542a.827.827 0 0 1-.68-.028zm20.51-1.92c-.21-.104-.866-.752-1.305-1.288-.544-.664-.999-1.45-1.212-2.096-.185-.559-.235-.892-.233-1.569 0-.74.025-.956.325-2.908.305-1.984.353-2.426.354-3.215.001-.76-.047-1.054-.267-1.645a10.677 10.677 0 0 0-.662-1.378c-.626-1.06-1.653-2.132-2.647-2.76-2.298-1.455-5.607-1.655-7.956-.482-.708.353-1.341.813-1.99 1.442-.748.727-1.303 1.46-2.212 2.922-.476.767-.858 1.287-1.325 1.806-.752.835-1.92 1.725-2.362 1.8-.346.058-.767-.17-.916-.497a1.028 1.028 0 0 1-.072-.357c-.001-.354.153-.602.497-.8.343-.198.9-.645 1.282-1.026.61-.61.94-1.055 1.722-2.325 1.36-2.208 2.847-3.657 4.651-4.532 1.209-.586 2.374-.867 3.811-.917 2.523-.089 4.844.656 6.71 2.155 1.467 1.176 2.763 3.1 3.272 4.853.174.6.199.823.197 1.78-.002 1.019-.028 1.272-.344 3.31-.366 2.362-.407 2.953-.25 3.559.188.73.721 1.553 1.589 2.455.511.532.598.67.598.947a.86.86 0 0 1-1.255.767zm.71-3.307a.898.898 0 0 1-.474-.354c-.16-.24-.165-.494-.023-1.177.548-2.639.59-5.149.12-7.156-.092-.39-.158-.6-.329-1.042-.206-.532-.159-.852.169-1.146.436-.393 1.087-.245 1.368.31.217.428.483 1.347.632 2.184.327 1.835.3 4.077-.078 6.295-.128.753-.29 1.494-.362 1.643-.17.358-.636.56-1.024.443zM33.564 42.686c-.374-.1-.608-.398-.634-.806-.018-.286.046-.414.661-1.34 1.136-1.708 2.486-3.273 3.559-4.126 1.75-1.393 3.744-2.206 6.126-2.499.663-.081 2.197-.112 2.826-.057 2.586.229 4.972 1.217 7.182 2.974.95.755 2.43 2.313 2.873 3.022.248.397.197.83-.132 1.119-.371.326-.837.316-1.169-.026a9.596 9.596 0 0 1-.498-.599c-.396-.51-1.48-1.606-2.037-2.058-2.358-1.915-4.907-2.825-7.646-2.73-2.308.08-4.117.618-5.751 1.713-1.326.888-2.549 2.225-3.88 4.243-.66 1.001-.663 1.004-.856 1.096-.233.112-.406.132-.624.074zm1.027-5.93c-.384-.168-.61-.592-.522-.981.056-.246.28-.543.828-1.092 1.59-1.592 3.682-2.76 6.04-3.37 2.11-.546 4.6-.62 6.94-.204 1.51.267 3.194.857 4.545 1.59.645.351 1.568.954 2.154 1.41.495.384.626.576.624.918-.002.585-.602 1.008-1.15.812-.073-.027-.356-.216-.628-.421-1.19-.898-2.35-1.54-3.599-1.992-2.746-.993-6.035-1.125-8.754-.352-2.084.593-4.033 1.772-5.281 3.195-.233.265-.4.42-.505.468-.182.082-.524.092-.692.019z" opacity=".4"/>
  <ellipse cx="65.947" cy="23.923" fill="url(#paint4_linear)" rx="8.123" ry="8.165"/>
  <path fill="#321D86" fill-rule="evenodd" d="M65.948 24.54c-1.433 0-4.3.721-4.3 2.162v1.543h8.6v-1.543c0-1.44-2.866-2.162-4.3-2.162zm0-4.94c-1.017 0-1.842.83-1.842 1.853 0 1.023.825 1.853 1.842 1.853 1.018 0 1.838-.83 1.838-1.853 0-1.022-.82-1.853-1.838-1.853z" clip-rule="evenodd" opacity=".4"/>
  <defs>
    <linearGradient id="paint0_linear" x1="25.147" x2="45" y1="-3.088" y2="90" gradientUnits="userSpaceOnUse">
      <stop stop-color="#7075FF"/>
      <stop offset="1" stop-color="#261E88"/>
    </linearGradient>
    <linearGradient id="paint1_linear" x1="77.891" x2="77.891" y1="32" y2="47" gradientUnits="userSpaceOnUse">
      <stop stop-color="#70AFFC"/>
      <stop offset="1" stop-color="#A8CFFE" stop-opacity="0"/>
    </linearGradient>
    <linearGradient id="paint2_linear" x1="24.347" x2="53.988" y1="57.439" y2="42.058" gradientUnits="userSpaceOnUse">
      <stop stop-color="#C7EEFF"/>
      <stop offset="1" stop-color="#A39CFF" stop-opacity=".8"/>
    </linearGradient>
    <linearGradient id="paint3_linear" x1="28.649" x2="52.266" y1="55.588" y2="43.52" gradientUnits="userSpaceOnUse">
      <stop stop-color="#C7EEFF"/>
      <stop offset="1" stop-color="#A39CFF" stop-opacity=".8"/>
    </linearGradient>
    <linearGradient id="paint4_linear" x1="58.653" x2="68.759" y1="27.006" y2="21.335" gradientUnits="userSpaceOnUse">
      <stop stop-color="#C7EEFF"/>
      <stop offset="1" stop-color="#A39CFF" stop-opacity=".8"/>
    </linearGradient>
  </defs>
</svg>
